# xmcd
#
# Track frame offsets:
#	150
#	17950
#	46081
#	69573
#	128087
#	155309
#	178344
#	209984
#	226551
#
# Disc length: 4079 seconds
#
# Revision: 1
# Processed by: cddbd v1.4PL0 Copyright (c) Steve Scherf et al.
# Submitted via: audiograbber 1.82.00
#
DISCID=780fed09
DTITLE=Blues Pumpm - Live, The Wolfpack Tapes, CD1
DYEAR=2001
DGENRE=Blues
TTITLE0=Leather Jacket
TTITLE1=Good Morning Blues
TTITLE2=You Got It
TTITLE3=Driftin'
TTITLE4=Village
TTITLE5=Oh Baby
TTITLE6=I See my Baby
TTITLE7=Rollin' and Tumblin'
TTITLE8=Sunny Boy
EXTD=
EXTT0=
EXTT1=
EXTT2=
EXTT3=
EXTT4=
EXTT5=
EXTT6=
EXTT7=
EXTT8=
PLAYORDER=
